<?xml version="1.0" standalone="no"?>
<!DOCTYPE svg PUBLIC "-//W3C//DTD SVG 20010904//EN"
 "http://www.w3.org/TR/2001/REC-SVG-20010904/DTD/svg10.dtd">
<svg version="1.0" xmlns="http://www.w3.org/2000/svg"
 width="400.000000pt" height="400.000000pt" viewBox="0 0 400.000000 400.000000"
 preserveAspectRatio="xMidYMid meet">
<metadata>
Created by potrace 1.11, written by Peter Selinger 2001-2013
</metadata>
<g transform="translate(0.000000,400.000000) scale(0.100000,-0.100000)"
fill="#000000" stroke="none">
<path d="M842 3373 c-23 -9 -33 -43 -43 -155 -5 -61 -23 -178 -39 -261 -33
-166 -35 -181 -19 -226 8 -22 17 -31 33 -31 29 0 46 20 86 100 46 92 103 173
147 209 64 53 122 64 338 63 284 -2 423 -11 442 -31 15 -14 16 -78 10 -661 -7
-727 -22 -1292 -37 -1393 -21 -143 -71 -193 -237 -238 -122 -33 -160 -84 -85
-116 39 -16 26 -17 357 8 113 8 218 7 422 -2 251 -11 273 -11 297 5 32 20 33
36 4 63 -22 20 -59 34 -178 67 -83 23 -144 66 -164 116 -35 89 -38 155 -43
1145 -5 952 -4 981 14 1004 l19 24 320 0 c336 1 420 -7 480 -44 40 -24 68 -90
83 -190 14 -104 25 -129 54 -129 43 0 64 37 77 130 17 136 39 248 67 347 26
95 25 143 -2 143 -9 0 -40 -14 -71 -32 -112 -63 -94 -61 -934 -66 -454 -2
-852 1 -978 7 -204 10 -216 12 -264 38 -28 15 -67 47 -88 70 -37 43 -43 46
-68 36z"/>
</g>
</svg>
